<?xml version='1.0' encoding='utf-8'?>
<svg xmlns="http://www.w3.org/2000/svg" width="1024" height="1024" viewBox="0 0 1024 1024">
  <title>Font1 Regular U+0031 1</title>
  <path d="M498.0 243.89999999999998 480.5 244.5 474.5 247.89999999999998C471.20000000000005 249.79999999999995 466.5 252.79999999999995 464.0 254.5C461.5 256.29999999999995 458.8 257.9 457.90000000000003 258.29999999999995C457.0 258.5999999999999 453.3 260.79999999999995 449.8 263.19999999999993C446.20000000000005 265.5999999999999 440.70000000000005 269.0999999999999 437.6 271.0C434.5 272.9 430.5 275.5 428.70000000000005 276.69999999999993C427.0 277.9 422.90000000000003 280.29999999999995 419.8 281.9C416.70000000000005 283.5999999999999 413.8 285.5 413.5 286.0999999999999C413.1 286.69999999999993 410.0 288.5 406.6 290.0999999999999C403.3 291.79999999999995 396.90000000000003 295.0999999999999 392.5 297.69999999999993C388.1 300.19999999999993 382.1 303.5999999999999 379.1 305.19999999999993C376.1 306.79999999999995 372.5 308.9 371.1 309.9C369.70000000000005 310.9 366.40000000000003 312.69999999999993 363.8 313.79999999999995C355.6 317.4 354.90000000000003 319.4 355.40000000000003 340.0C355.6 349.5999999999999 355.90000000000003 360.69999999999993 355.90000000000003 364.69999999999993C356.0 375.19999999999993 361.40000000000003 378.5 368.5 372.4C370.20000000000005 371.0 377.40000000000003 366.9 384.5 363.29999999999995C391.70000000000005 359.79999999999995 401.1 354.9 405.5 352.5C409.90000000000003 350.0999999999999 416.70000000000005 346.5 420.5 344.5C424.40000000000003 342.5999999999999 430.40000000000003 339.19999999999993 434.0 337.0C437.6 334.9 443.0 331.79999999999995 446.0 330.0999999999999C449.0 328.5 454.6 324.5999999999999 458.40000000000003 321.5999999999999C465.6 315.79999999999995 469.3 314.69999999999993 470.8 317.69999999999993C472.20000000000005 320.5 473.0 399.19999999999993 473.0 544.0C473.0 672.4 473.0 677.5 471.20000000000005 679.2C469.5 681.0 466.20000000000005 681.0999999999999 417.40000000000003 681.5999999999999C388.90000000000003 681.8 364.0 682.3 362.20000000000005 682.5999999999999C356.6 683.5 356.20000000000005 685.2 355.40000000000003 709.5C354.8 731.4 354.8 731.5 357.0 733.5C359.20000000000005 735.5 360.6 735.5 501.40000000000003 735.5C579.5 735.5 644.8000000000001 735.0999999999999 646.3000000000001 734.7C651.3000000000001 733.3 652.0 729.5999999999999 652.0 706.2C652.0 682.0 651.9000000000001 681.7 643.3000000000001 681.7C593.2 682.0 538.7 680.5999999999999 536.7 679.0L534.5 677.2L534.0 462.6L533.5 248.0999999999999L531.3000000000001 245.79999999999995C528.6 243.19999999999993 525.1 243.0 498.0 243.89999999999998Z" fill="#000000" fill-rule="nonzero" />
</svg>