<?xml version='1.0' encoding='utf-8'?>
<svg xmlns="http://www.w3.org/2000/svg" width="1024" height="1024" viewBox="0 0 1024 1024">
  <title>Font1 Regular U+003D =</title>
  <path d="M359.0 414.0C343.40000000000003 414.4 340.0 414.79999999999995 337.70000000000005 416.29999999999995C334.5 418.4 334.70000000000005 416.69999999999993 334.90000000000003 441.5L335.1 461.5L337.90000000000003 464.1L340.70000000000005 466.69999999999993L509.6 466.79999999999995C696.5 466.9 682.0 467.4 683.9000000000001 460.29999999999995C684.5 458.19999999999993 685.0 448.0 685.0 437.69999999999993C685.0 419.1 685.0 418.9 682.5 416.5C681.2 415.1 679.3000000000001 414.0 678.3000000000001 414.0C677.3000000000001 414.1 609.2 414.0 527.0 413.79999999999995C444.8 413.6 369.20000000000005 413.69999999999993 359.0 414.0ZM354.20000000000005 541.0C332.6 541.7 334.20000000000005 539.5999999999999 334.8 566.2C335.20000000000005 585.5 335.3 586.5999999999999 337.40000000000003 588.8L339.6 591.0999999999999L377.6 591.4C628.0 593.7 676.2 593.4 680.8000000000001 589.5L683.5 587.2L683.8000000000001 566.0999999999999C684.1 546.5999999999999 684.0 545.0 682.2 543.2C680.4000000000001 541.4 677.5 541.3 630.5 540.7C574.2 539.9 379.1 540.0999999999999 354.20000000000005 541.0Z" fill="#000000" fill-rule="nonzero" />
</svg>