<?xml version='1.0' encoding='utf-8'?>
<svg xmlns="http://www.w3.org/2000/svg" width="1024" height="1024" viewBox="0 0 1024 1024">
  <title>Font1 Regular U+006D m</title>
  <path d="M455.0 362.0999999999999C429.1 365.79999999999995 401.70000000000005 388.0 388.90000000000003 415.6C384.1 426.0 380.70000000000005 430.0 376.90000000000003 430.0C372.70000000000005 430.0 371.5 426.4 372.90000000000003 418.4C375.0 406.5 374.3 374.69999999999993 371.90000000000003 371.5999999999999L369.8 368.9L346.90000000000003 369.19999999999993C324.70000000000005 369.5 324.0 369.5999999999999 321.8 371.79999999999995L319.5 374.0999999999999L319.0 556.3C318.70000000000005 656.5 318.90000000000003 739.7 319.40000000000003 741.3C320.70000000000005 745.5 322.0 745.8 346.1 746.2C370.40000000000003 746.5 371.1 746.4 373.1 741.3C373.6 740.0 374.0 689.3 374.0 628.0999999999999C374.1 520.0999999999999 374.1 517.2 376.0 513.9C380.6 506.0 386.20000000000005 494.6 388.40000000000003 488.79999999999995C389.70000000000005 485.29999999999995 392.6 479.29999999999995 394.8 475.5C396.90000000000003 471.6 400.0 466.19999999999993 401.5 463.5C412.1 444.69999999999993 430.6 426.0 441.70000000000005 422.9C453.3 419.69999999999993 462.40000000000003 423.6 467.90000000000003 434.29999999999995L471.3 440.9L472.20000000000005 462.19999999999993C472.8 474.5 472.90000000000003 537.5999999999999 472.6 611.5999999999999C472.3 682.0999999999999 472.3 740.5 472.6 741.4C474.1 745.4 478.0 746.0 500.90000000000003 746.0C523.8000000000001 746.0 527.1 745.5 529.0 741.9C529.9 740.3 530.2 710.5 530.3000000000001 628.0999999999999L530.5 516.4L533.4 512.0C535.0 509.6 542.1 496.29999999999995 549.2 482.6C556.4 468.79999999999995 564.0 455.0 566.3000000000001 452.0C588.4 422.1 607.9 414.4 622.7 429.79999999999995C631.0 438.5 630.3000000000001 425.9 630.7 592.0C630.9000000000001 673.0999999999999 631.2 740.5 631.5 741.5999999999999C632.4000000000001 745.5999999999999 636.2 746.0999999999999 659.8000000000001 745.8C688.3000000000001 745.4 686.3000000000001 746.9 687.1 725.2C687.4000000000001 716.5999999999999 687.3000000000001 685.9 686.9000000000001 657.0C686.5 628.0999999999999 686.1 566.0 686.0 518.9V433.29999999999995L683.6 420.4C677.3000000000001 386.29999999999995 663.9000000000001 370.69999999999993 636.1 365.0C604.7 358.5999999999999 582.6 368.5999999999999 556.9 401.0C551.4 407.9 548.0 413.5 542.0 425.5C535.4 438.69999999999993 532.4 441.19999999999993 528.6 436.9C526.9 434.9 526.1 432.4 525.6 427.4C523.4 404.9 509.6 380.19999999999993 493.6 369.79999999999995C483.40000000000003 363.19999999999993 468.0 360.19999999999993 455.0 362.0999999999999Z" fill="#000000" fill-rule="nonzero" />
</svg>