<?xml version='1.0' encoding='utf-8'?>
<svg xmlns="http://www.w3.org/2000/svg" width="1024" height="1024" viewBox="0 0 1024 1024">
  <title>Font1 Regular U+0070 p</title>
  <path d="M542.5 351.0C539.8000000000001 351.4 534.6 352.9 531.0 354.29999999999995C527.4 355.5999999999999 522.0 357.29999999999995 519.0 358.0C516.0 358.69999999999993 511.3 360.5 508.5 362.0C505.8 363.5999999999999 502.40000000000003 365.0999999999999 501.0 365.5C488.1 369.29999999999995 447.70000000000005 404.4 435.0 423.0C428.0 433.29999999999995 423.90000000000003 436.1 421.20000000000005 432.69999999999993C420.3 431.6 419.3 391.5999999999999 419.8 374.0C420.0 365.0 418.6 360.19999999999993 415.6 359.0C414.3 358.5 401.3 358.0 386.5 357.9C360.0 357.5999999999999 359.8 357.5999999999999 358.0 359.79999999999995C355.40000000000003 363.0 354.90000000000003 386.19999999999993 354.90000000000003 505.0C354.90000000000003 560.3 354.8 613.8 354.8 624.0C354.8 634.2 354.8 687.2 354.90000000000003 741.8C355.0 796.4 354.8 844.0 354.5 847.4C353.1 859.8 354.40000000000003 860.2 389.8 859.8C416.1 859.5 416.20000000000005 859.5 418.1 857.1C419.90000000000003 854.9 420.0 852.2 420.0 788.6C420.0 737.5 420.3 721.9 421.3 720.0C422.90000000000003 716.8 427.6 716.3 436.1 718.5C454.5 723.3 491.70000000000005 725.5 511.70000000000005 723.0C529.6 720.8 553.3000000000001 715.9 560.0 713.0999999999999C563.6 711.5 568.1 709.7 570.0 708.9C571.9 708.2 575.5 706.4 578.0 704.9C580.5 703.4 584.7 701.0 587.4 699.4C624.0 677.7 651.8000000000001 647.0 668.8000000000001 609.5C674.2 597.4 679.0 585.5999999999999 679.0 584.3C679.0 583.8 680.7 577.5999999999999 682.9000000000001 570.5C688.7 551.0 689.5 543.7 689.5 510.0C689.5 472.79999999999995 688.2 458.69999999999993 683.5 444.29999999999995C681.6 438.4 680.0 433.1 680.0 432.5C680.0 430.4 669.9000000000001 410.69999999999993 665.2 403.5C656.4000000000001 390.0 634.0 370.0 622.0 364.69999999999993C619.5 363.5999999999999 616.3000000000001 361.9 614.9000000000001 360.9C613.4 359.9 609.3000000000001 358.4 605.8000000000001 357.5C602.3000000000001 356.69999999999993 595.8000000000001 354.9 591.5 353.4C582.8000000000001 350.5 553.6 349.0999999999999 542.5 351.0ZM571.2 410.5C591.2 415.69999999999993 606.8000000000001 433.0 614.8000000000001 459.19999999999993C620.4000000000001 477.1 621.5 486.79999999999995 621.5 516.0C621.4000000000001 547.5999999999999 619.4000000000001 561.7 612.7 576.7C610.8000000000001 581.0 608.9 585.5999999999999 608.5 587.0C606.5 594.0 594.6 614.2 584.9 627.0C569.1 648.0 537.5 666.7 510.40000000000003 671.0999999999999C499.0 673.0 469.90000000000003 672.7 456.0 670.7C441.90000000000003 668.5999999999999 423.0 662.4 421.5 659.4C420.90000000000003 658.0999999999999 420.5 632.5999999999999 420.5 585.9V514.3L423.5 510.1C425.20000000000005 507.79999999999995 427.6 504.19999999999993 429.0 502.1C439.6 485.79999999999995 447.6 475.19999999999993 460.1 461.1C468.70000000000005 451.29999999999995 471.5 448.79999999999995 491.1 432.4C498.20000000000005 426.4 506.1 420.9 508.90000000000003 419.9C510.3 419.29999999999995 513.2 417.69999999999993 515.2 416.29999999999995C519.0 413.69999999999993 532.5 409.4 541.5 408.0C548.8000000000001 406.79999999999995 560.9 407.79999999999995 571.2 410.5Z" fill="#000000" fill-rule="nonzero" />
</svg>